<svg width="507" height="100" viewBox="0 0 507 100" fill="none" xmlns="http://www.w3.org/2000/svg">
<path d="M181.323 40.5473L189.231 36.1554L184.817 28.7968H226.333L205.582 63.419L201.167 56.0477L193.259 60.4525L205.582 81L242.15 20H169L181.323 40.5473Z" fill="url(#paint0_linear_941_17)"/>
<path d="M23.0412 81C21.1746 81 19.4412 80.5467 17.8412 79.64C16.2412 78.68 14.9612 77.4267 14.0012 75.88C13.0946 74.28 12.6412 72.52 12.6412 70.6V67.24H21.2812V70.36C21.2812 70.8933 21.4679 71.3733 21.8412 71.8C22.2679 72.1733 22.7479 72.36 23.2812 72.36H59.6013C60.1346 72.36 60.5879 72.1733 60.9612 71.8C61.3346 71.3733 61.5213 70.8933 61.5213 70.36V58.52C61.5213 57.9333 61.3346 57.4533 60.9612 57.08C60.5879 56.7067 60.1346 56.52 59.6013 56.52H23.0412C21.1746 56.52 19.4412 56.0667 17.8412 55.16C16.2412 54.2 14.9612 52.9467 14.0012 51.4C13.0946 49.8 12.6412 48.04 12.6412 46.12V33.8C12.6412 31.88 13.0946 30.1467 14.0012 28.6C14.9612 27 16.2412 25.7467 17.8412 24.84C19.4412 23.88 21.1746 23.4 23.0412 23.4H59.8412C61.7079 23.4 63.4412 23.88 65.0412 24.84C66.6412 25.7467 67.8946 27 68.8012 28.6C69.7612 30.1467 70.2412 31.88 70.2412 33.8V37.16H61.5213V34.04C61.5213 33.5067 61.3346 33.0533 60.9612 32.68C60.5879 32.2533 60.1346 32.04 59.6013 32.04H23.2812C22.7479 32.04 22.2679 32.2533 21.8412 32.68C21.4679 33.0533 21.2812 33.5067 21.2812 34.04V45.88C21.2812 46.4667 21.4679 46.9467 21.8412 47.32C22.2679 47.6933 22.7479 47.88 23.2812 47.88H59.8412C61.7079 47.88 63.4412 48.36 65.0412 49.32C66.6412 50.2267 67.8946 51.48 68.8012 53.08C69.7612 54.6267 70.2412 56.36 70.2412 58.28V70.6C70.2412 72.52 69.7612 74.28 68.8012 75.88C67.8946 77.4267 66.6412 78.68 65.0412 79.64C63.4412 80.5467 61.7079 81 59.8412 81H23.0412ZM87.7788 81V23.4H96.4188V47.88H138.019V23.4H146.739V81H138.019V56.52H96.4188V81H87.7788ZM260.715 81V23.4H307.835C309.755 23.4 311.515 23.88 313.115 24.84C314.715 25.7467 315.968 27 316.875 28.6C317.835 30.1467 318.315 31.88 318.315 33.8V70.6C318.315 72.52 317.835 74.28 316.875 75.88C315.968 77.4267 314.715 78.68 313.115 79.64C311.515 80.5467 309.755 81 307.835 81H260.715ZM271.275 72.36H307.675C308.208 72.36 308.662 72.1733 309.035 71.8C309.408 71.3733 309.595 70.8933 309.595 70.36V34.04C309.595 33.5067 309.408 33.0533 309.035 32.68C308.662 32.2533 308.208 32.04 307.675 32.04H271.275C270.742 32.04 270.288 32.2533 269.915 32.68C269.542 33.0533 269.355 33.5067 269.355 34.04V70.36C269.355 70.8933 269.542 71.3733 269.915 71.8C270.288 72.1733 270.742 72.36 271.275 72.36ZM346.314 81C344.394 81 342.634 80.5467 341.034 79.64C339.487 78.68 338.234 77.4267 337.274 75.88C336.367 74.28 335.914 72.52 335.914 70.6V33.8C335.914 31.88 336.367 30.1467 337.274 28.6C338.234 27 339.487 25.7467 341.034 24.84C342.634 23.88 344.394 23.4 346.314 23.4H383.114C384.98 23.4 386.714 23.88 388.314 24.84C389.914 25.7467 391.167 27 392.074 28.6C393.034 30.1467 393.514 31.88 393.514 33.8V70.6C393.514 72.52 393.034 74.28 392.074 75.88C391.167 77.4267 389.914 78.68 388.314 79.64C386.714 80.5467 384.98 81 383.114 81H346.314ZM346.554 72.36H382.874C383.407 72.36 383.86 72.1733 384.234 71.8C384.607 71.3733 384.794 70.8933 384.794 70.36V34.04C384.794 33.5067 384.607 33.0533 384.234 32.68C383.86 32.2533 383.407 32.04 382.874 32.04H346.554C346.02 32.04 345.54 32.2533 345.114 32.68C344.74 33.0533 344.554 33.5067 344.554 34.04V70.36C344.554 70.8933 344.74 71.3733 345.114 71.8C345.54 72.1733 346.02 72.36 346.554 72.36ZM427.982 81L407.022 23.4H416.222L431.502 65.32L446.782 23.4H455.902L471.262 65.32L486.462 23.4H495.742L474.782 81H467.662L451.342 36.2L435.022 81H427.982Z" fill="white"/>
<defs>
<linearGradient id="paint0_linear_941_17" x1="205.575" y1="20" x2="205.575" y2="81" gradientUnits="userSpaceOnUse">
<stop stop-color="#DEC7FF" stop-opacity="0.78"/>
<stop offset="1" stop-color="#5C27FE"/>
</linearGradient>
</defs>
</svg>
